<?xml version="1.0" encoding="utf-8" ?>
<svg xmlns="http://www.w3.org/2000/svg" xmlns:xlink="http://www.w3.org/1999/xlink" width="1377" height="1165">
	<path d="M0 0L1035.8 0L1043.2 0L1375.82 0C1376.56 1.29942 1376.85 2.19185 1376.92 3.68446C1377.76 22.0648 1377 40.8543 1377 59.2706L1377.01 169.915L1377 508.346L1377.01 1026.3L1377 1125.86C1377 1132.78 1378.09 1159.04 1376.58 1163.53C1376.42 1164.01 1376.06 1164.58 1375.82 1165L339.17 1165L332.94 1165L0 1165L0 831.971L0 824.407L0 0ZM1043.2 0C1048.22 1.5798 1052.31 3.20074 1056.3 6.78357C1072.86 21.667 1088.17 38.5974 1104.03 54.2737L1222.7 172.784L1326.08 276.181C1335.46 285.568 1369.51 317.497 1373.76 325.644Q1374.04 326.173 1374.29 326.715Q1374.53 327.257 1374.76 327.81Q1374.98 328.363 1375.18 328.926Q1375.37 329.49 1375.54 330.062Q1375.71 330.634 1375.85 331.214Q1375.99 331.793 1376.1 332.379Q1376.22 332.965 1376.3 333.556Q1376.39 334.146 1376.44 334.74Q1376.5 335.334 1376.52 335.93Q1376.55 336.526 1376.55 337.122Q1376.55 337.719 1376.51 338.314Q1376.48 338.91 1376.42 339.504Q1376.36 340.097 1376.28 340.687Q1376.19 341.277 1376.07 341.862Q1375.95 342.447 1375.81 343.025Q1375.66 343.604 1375.49 344.175C1373.69 350.029 1369.65 354.072 1365.5 358.328C1312.14 413.013 1257.36 466.465 1203.33 520.501L876.845 847.017L762.121 961.749L727.604 996.268C718.466 1005.41 708.141 1018.33 696.696 1024.35C687.532 1029.17 401.271 1024.24 359.59 1026.4L359.712 1106.11C359.737 1118.9 361.22 1133.48 358.939 1146.01Q358.791 1146.8 358.586 1147.58Q358.38 1148.36 358.119 1149.13Q357.858 1149.89 357.542 1150.63Q357.226 1151.38 356.858 1152.09Q356.489 1152.81 356.069 1153.5Q355.649 1154.19 355.181 1154.85Q354.712 1155.5 354.197 1156.13Q353.683 1156.75 353.124 1157.33C349.264 1161.33 344.43 1163.47 339.17 1165L1375.82 1165C1376.06 1164.58 1376.42 1164.01 1376.58 1163.53C1378.09 1159.04 1377 1132.78 1377 1125.86L1377.01 1026.3L1377 508.346L1377.01 169.915L1377 59.2706C1377 40.8543 1377.76 22.0648 1376.92 3.68446C1376.85 2.19185 1376.56 1.29942 1375.82 0L1043.2 0ZM0 0L0 824.407C2.575 815.947 5.91049 811.277 12.148 805.027L518.049 299.269L620.832 196.471C629.686 187.618 670.914 144.217 678.114 140.896C682.114 139.051 689.142 138.755 693.526 138.604C728.412 137.401 765.252 138.517 800.321 138.52L1015.9 138.492L1015.89 60.6063C1015.89 48.0894 1015.07 34.9858 1016.17 22.5509C1016.46 19.3295 1016.99 16.3732 1018.41 13.4406C1022.14 5.70022 1028.11 2.71265 1035.8 0L0 0ZM0 831.971L0 1165L332.94 1165C329.853 1164.06 326.586 1163.03 323.724 1161.51C316.562 1157.72 286.226 1125.3 278.622 1117.69L167.08 1006.15L62.3883 901.477C44.0424 883.153 24.6722 865.232 7.21008 846.109C3.32412 841.854 1.66741 837.374 0 831.971ZM624.984 535.746C624.396 567.169 624.858 598.673 624.877 630.105C674.301 630.915 723.858 630.249 773.295 630.229L773.299 535.755L624.984 535.746ZM359.689 535.737L359.66 630.102C390.805 630.614 421.965 629.976 453.111 630.285L453.132 535.775C422.049 535.742 390.744 536.573 359.689 535.737ZM945.186 535.795L945.167 630.082C968.711 630.591 992.308 630.255 1015.86 630.229L1015.92 535.809L945.186 535.795Z"/>
	<path fill="#FEFFFF" d="M819.301 491.469L899.239 491.483L899.216 673.426L819.287 673.391L819.301 491.469Z"/>
	<path fill="#FEFFFF" d="M498.961 491.463L578.956 491.473L578.901 673.441L498.979 673.417L498.961 491.463Z"/>
	<path fill="#FEFFFF" d="M312.979 569.275C315.283 571.588 312.386 644.137 314.522 654.835C315.534 659.906 317.641 664.735 321.365 668.421C325.23 672.247 330.423 674.466 335.719 675.431C348.013 677.671 362.281 676.222 374.852 676.22L453.163 676.21C453.084 688.263 450.62 703.164 459.863 712.562Q460.507 713.211 461.203 713.805Q461.898 714.399 462.639 714.934Q463.38 715.47 464.163 715.943Q464.945 716.416 465.764 716.824Q466.582 717.232 467.431 717.572Q468.28 717.912 469.154 718.181Q470.028 718.45 470.921 718.648Q471.814 718.845 472.72 718.969C483.364 720.497 500.703 719.309 512.102 719.316L595.52 719.313C604.404 719.259 612.129 718.969 618.694 711.982C627.213 702.915 624.922 687.703 624.768 676.225L773.323 676.21C773.221 688.316 770.902 703.485 780.342 712.827C786.858 719.276 794.688 719.284 803.189 719.307L887.479 719.331C898.405 719.329 916.361 720.623 926.53 718.803C931.068 717.99 935.616 715.541 938.795 712.213C947.519 703.078 945.34 687.827 945.207 676.211L982.701 676.238L690.853 968.106L678.73 980.209L444.325 980.22L372.077 980.184C360.252 980.178 347.522 979.215 335.813 980.545C329.901 981.217 324.729 983.733 320.509 987.917C316.932 991.464 315.163 996.298 314.285 1001.18C312.458 1011.34 313.639 1022.87 313.689 1033.23L313.731 1087.78L54.049 828.144C86.752 794.25 120.747 761.401 154.054 728.087L312.979 569.275Z"/>
	<path fill="#FEFFFF" d="M1061.68 77.0635C1067.97 81.6358 1073.81 88.8217 1079.37 94.3793L1117.57 132.575L1256.08 271.116C1263.71 278.753 1318.7 331.898 1321.17 337.015C1320.25 340.221 1086.55 572.417 1061.65 597.31L1061.66 539.554C1061.66 529.929 1062.81 519.004 1060.9 509.616C1059.88 504.642 1057.64 499.839 1053.95 496.283C1050.36 492.82 1045.69 490.948 1040.83 490.125C1029.94 488.282 1017.66 489.492 1006.6 489.53L945.218 489.527C945.364 477.923 947.567 462.455 939.133 453.113C934.102 447.54 927.975 445.87 920.771 445.678C892.831 444.936 864.696 445.601 836.738 445.613C824.494 445.619 803.276 444.291 792.093 446.139Q791.275 446.274 790.469 446.471Q789.663 446.668 788.875 446.926Q788.086 447.184 787.32 447.501Q786.553 447.818 785.813 448.192Q785.073 448.567 784.364 448.997Q783.654 449.426 782.979 449.909Q782.305 450.391 781.669 450.923Q781.033 451.456 780.439 452.035C770.789 461.498 773.194 477.242 773.319 489.542L760.779 489.555L624.813 489.53C624.751 484.221 624.946 478.903 624.933 473.592C624.914 465.642 624.05 457.882 617.913 452.066C614.11 448.464 609.331 446.649 604.229 445.884C593.286 444.244 577.795 445.701 566.315 445.689C537.824 445.661 509.306 445.34 480.818 445.599C472.728 445.673 465.618 446.404 459.652 452.612C450.543 462.089 453.02 477.459 453.154 489.542L392.757 489.52C427.058 453.976 462.638 419.49 497.569 384.555L697.789 184.351Q721.317 184.245 744.844 184.433L948.192 184.474L1007.74 184.515C1018.5 184.521 1030.15 185.446 1040.76 183.898C1046.22 183.103 1051.02 180.074 1054.85 176.21C1058.35 172.68 1060.01 168.284 1060.91 163.477C1062.75 153.706 1061.7 142.426 1061.69 132.471L1061.68 77.0635Z"/>
</svg>
